# xmcd
#
# Track frame offsets:
#	150
#	16082
#	35722
#	56912
#	81497
#	99777
#	119690
#	141157
#	163607
#	183970
#	202500
#	216227
#	239667
#	261320
#
# Disc length: 3828 seconds
#
# Revision: 0
# Processed by: cddbd v1.5.1PL2 Copyright (c) Steve Scherf et al.
# Submitted via: dBpowerAMP V4.0
#
DISCID=c70ef20e
DTITLE=葉良俊 - 追心
DYEAR=1995
DGENRE=World
TTITLE0=我總是聽你說
TTITLE1=有些愛不等於愛
TTITLE2=請為我加油
TTITLE3=愛你不是愛給別人看
TTITLE4=留過淚流過汗
TTITLE5=最愛是你
TTITLE6=多愛你一回
TTITLE7=把你的愛交給我
TTITLE8=Sayonara Goodbye
TTITLE9=Elizabeth
TTITLE10=小心我會愛上你
TTITLE11=我的努力你看不見
TTITLE12=我的心亂了
TTITLE13=愛你不是愛給別人看(卡拉音樂)
EXTD=
EXTT0=
EXTT1=
EXTT2=
EXTT3=
EXTT4=
EXTT5=
EXTT6=
EXTT7=
EXTT8=
EXTT9=
EXTT10=
EXTT11=
EXTT12=
EXTT13=
PLAYORDER=
